<svg height="512" viewBox="0 0 64 64" width="512" xmlns="http://www.w3.org/2000/svg"><g id="QR_code" data-name="QR code"><path d="m41 14v-7a4 4 0 0 0 -4-4h-3v4a2 2 0 0 1 -2 2h-18a2 2 0 0 1 -2-2v-4h-3a4 4 0 0 0 -4 4v50c0 2.209.791 4 3 4h28c2.209 0 5-1.791 5-4v-7a18 18 0 0 1 0-36z" fill="#9bc9ff"/><g fill="#1e81ce"><path d="m18 31h2v2h-2z"/><path d="m18.75 36.694h2v2h-2z" transform="matrix(.966 -.259 .259 .966 -9.083 6.396)"/><path d="m18.75 25.306h2v2h-2z" transform="matrix(.259 -.966 .966 .259 -10.772 38.574)"/><path d="m34 56h-22a1 1 0 0 0 0 2h22a1 1 0 0 0 0-2z"/><path d="m20.948 42h2v2h-2z" transform="matrix(.866 -.5 .5 .866 -18.557 16.731)"/><path d="m24.443 46.557h2v2h-2z" transform="matrix(.707 -.707 .707 .707 -26.175 31.92)"/><path d="m29 50.052h2v2h-2z" transform="matrix(.5 -.866 .866 .5 -29.213 51.512)"/><path d="m20.947 20h2v2h-2z" transform="matrix(.5 -.866 .866 .5 -7.213 29.506)"/><path d="m24.444 15.443h2v2h-2z" transform="matrix(.707 -.707 .707 .707 -4.175 22.808)"/><path d="m29 11.948h2v2h-2z" transform="matrix(.866 -.5 .5 .866 -2.454 16.736)"/><path d="m48 52h-2v2h-2v2h2v2h2v-2h2v-2h-2z"/><path d="m44 60h6v2h-6z"/><path d="m51 12a1 1 0 0 1 1 1 1 1 0 0 0 2 0 3 3 0 0 0 -3-3 1 1 0 0 0 0 2z"/><path d="m51 2a1 1 0 0 0 0 2 9.011 9.011 0 0 1 9 9 1 1 0 0 0 2 0 11.013 11.013 0 0 0 -11-11z"/><path d="m51 8a5.006 5.006 0 0 1 5 5 1 1 0 0 0 2 0 7.008 7.008 0 0 0 -7-7 1 1 0 0 0 0 2z"/><path d="m47 23h3v3h2v-5h-5z"/><path d="m32 23h3v-2h-5v5h2z"/><path d="m50 41h-3v2h5v-5h-2z"/><path d="m32 38h-2v5h5v-2h-3z"/><path d="m51 33v-2h-9v-8h-2v8h-9v2h9v8h2v-8z"/><path d="m49 24h-6v6h6zm-2 4h-2v-2h2z"/><path d="m33 30h6v-6h-6zm2-4h2v2h-2z"/><path d="m33 40h6v-6h-6zm2-4h2v2h-2z"/><path d="m44 34h5v2h-5z"/><path d="m44 37h2v3h-2z"/><path d="m47 37h2v2h-2z"/><path d="m42 13.051v-6.051a5.006 5.006 0 0 0 -5-5h-28a5.006 5.006 0 0 0 -5 5v50c0 3.131 1.5 5 4 5h28c2.774 0 6-2.184 6-5v-6.051a18.974 18.974 0 0 0 0-37.9zm-29-9.051h20v3a1 1 0 0 1 -1 1h-18a1 1 0 0 1 -1-1zm23 56h-28c-.5 0-2 0-2-3v-50a3 3 0 0 1 3-3h2v3a3 3 0 0 0 3 3h18a3 3 0 0 0 3-3v-3h2a3 3 0 0 1 3 3v6.051a18.974 18.974 0 0 0 0 37.9v6.049c0 1.545-2.253 3-4 3zm5-11a17 17 0 1 1 17-17 17.019 17.019 0 0 1 -17 17z"/></g></g></svg>